<svg xmlns="http://www.w3.org/2000/svg" width="1440" height="76" fill="none"><path fill="#3498DB" d="M0 0h1440v76H0z"/><path fill="#fff" d="M593.76 45.624c-1.013 0-1.941-.165-2.784-.496a6.018 6.018 0 0 1-2.16-1.408 6.377 6.377 0 0 1-1.392-2.192c-.32-.853-.48-1.813-.48-2.88 0-1.056.171-2.016.512-2.88a6.619 6.619 0 0 1 1.44-2.24 6.32 6.32 0 0 1 2.24-1.44c.864-.341 1.813-.512 2.848-.512 1.237 0 2.32.25 3.248.752a5.385 5.385 0 0 1 2.192 2.064c.523.885.784 1.92.784 3.104 0 .928-.128 1.733-.384 2.416-.256.683-.613 1.21-1.072 1.584-.459.373-.997.56-1.616.56-.64 0-1.125-.181-1.456-.544-.331-.373-.48-.875-.448-1.504l.336.032c-.267.661-.645 1.163-1.136 1.504-.491.341-1.008.512-1.552.512-.832 0-1.477-.261-1.936-.784-.459-.523-.688-1.237-.688-2.144 0-.779.149-1.472.448-2.08.299-.619.709-1.104 1.232-1.456a3.108 3.108 0 0 1 1.776-.528c.576 0 1.045.144 1.408.432.373.288.619.693.736 1.216h-.208l.176-1.008c.053-.373.272-.56.656-.56.181 0 .32.053.416.16.096.107.123.267.08.48l-.608 3.504a8.81 8.81 0 0 0-.08.416c-.011.128-.016.25-.016.368 0 .352.08.613.24.784.16.17.395.256.704.256.405 0 .752-.15 1.04-.448.299-.299.533-.72.704-1.264.171-.544.256-1.179.256-1.904 0-1.003-.219-1.872-.656-2.608a4.479 4.479 0 0 0-1.824-1.712c-.779-.416-1.701-.624-2.768-.624-1.184 0-2.219.256-3.104.768a5.326 5.326 0 0 0-2.08 2.128c-.491.907-.736 1.973-.736 3.2 0 1.248.235 2.32.704 3.216a4.84 4.84 0 0 0 1.984 2.048c.853.48 1.861.72 3.024.72.768 0 1.461-.101 2.08-.304a4.995 4.995 0 0 0 1.616-.864c.149-.128.293-.181.432-.16a.457.457 0 0 1 .32.192c.075.107.101.23.08.368-.011.139-.091.267-.24.384-.501.427-1.12.763-1.856 1.008-.725.245-1.536.368-2.432.368Zm-.704-4.576a1.91 1.91 0 0 0 1.216-.416c.363-.277.645-.661.848-1.152.203-.49.304-1.045.304-1.664 0-.587-.128-1.024-.384-1.312-.256-.288-.651-.432-1.184-.432-.448 0-.859.133-1.232.4-.363.256-.645.613-.848 1.072-.203.459-.304.987-.304 1.584 0 .619.139 1.093.416 1.424.277.33.667.496 1.168.496ZM603.236 43c-.256 0-.448-.059-.576-.176-.117-.128-.176-.299-.176-.512 0-.128.032-.256.096-.384s.16-.256.288-.384l3.504-3.76c.534-.565.918-1.088 1.152-1.568a3.28 3.28 0 0 0 .352-1.456c0-.619-.192-1.088-.576-1.408-.373-.33-.922-.496-1.648-.496-.448 0-.88.075-1.296.224a4.315 4.315 0 0 0-1.2.656c-.149.107-.288.155-.416.144a.564.564 0 0 1-.336-.144.997.997 0 0 1-.192-.32.74.74 0 0 1 .016-.4.67.67 0 0 1 .272-.352 5.042 5.042 0 0 1 1.52-.8 5.58 5.58 0 0 1 1.776-.288c.768 0 1.414.123 1.936.368.534.235.939.581 1.216 1.04.278.448.416.997.416 1.648 0 .448-.074.89-.224 1.328a5.863 5.863 0 0 1-.672 1.312 9.394 9.394 0 0 1-1.12 1.392l-3.328 3.504v-.432h5.248c.214 0 .374.053.48.16.118.107.176.261.176.464s-.058.363-.176.48c-.106.107-.266.16-.48.16h-6.032Zm12.314.144c-1.301 0-2.293-.496-2.976-1.488-.672-1.003-1.008-2.437-1.008-4.304 0-1.27.149-2.33.448-3.184.309-.853.757-1.499 1.344-1.936.597-.437 1.328-.656 2.192-.656 1.312 0 2.304.49 2.976 1.472.672.97 1.008 2.4 1.008 4.288 0 1.248-.155 2.304-.464 3.168-.299.864-.741 1.52-1.328 1.968-.587.448-1.317.672-2.192.672Zm0-1.264c.853 0 1.488-.368 1.904-1.104.416-.736.624-1.883.624-3.44s-.208-2.693-.624-3.408c-.405-.725-1.04-1.088-1.904-1.088-.853 0-1.488.363-1.904 1.088-.416.715-.624 1.85-.624 3.408 0 1.557.208 2.704.624 3.44.416.736 1.051 1.104 1.904 1.104Zm6.874 1.12c-.256 0-.448-.059-.576-.176-.118-.128-.176-.299-.176-.512 0-.128.032-.256.096-.384s.16-.256.288-.384l3.504-3.76c.533-.565.917-1.088 1.152-1.568.234-.48.352-.965.352-1.456 0-.619-.192-1.088-.576-1.408-.374-.33-.923-.496-1.648-.496-.448 0-.88.075-1.296.224a4.288 4.288 0 0 0-1.2.656c-.15.107-.288.155-.416.144a.564.564 0 0 1-.336-.144.962.962 0 0 1-.192-.32.73.73 0 0 1 .016-.4.66.66 0 0 1 .272-.352 5.03 5.03 0 0 1 1.52-.8 5.58 5.58 0 0 1 1.776-.288c.768 0 1.413.123 1.936.368.533.235.938.581 1.216 1.04.277.448.416.997.416 1.648 0 .448-.075.89-.224 1.328-.15.427-.374.864-.672 1.312a9.46 9.46 0 0 1-1.12 1.392l-3.328 3.504v-.432h5.248c.213 0 .373.053.48.16.117.107.176.261.176.464s-.059.363-.176.48c-.107.107-.267.16-.48.16h-6.032Zm14.186.112c-.235 0-.416-.064-.544-.192-.128-.128-.192-.315-.192-.56v-1.712h-4.448c-.235 0-.427-.053-.576-.16-.139-.107-.208-.272-.208-.496 0-.128.032-.261.096-.4s.176-.325.336-.56l4.752-6.928c.117-.16.24-.283.368-.368a.866.866 0 0 1 .464-.128c.192 0 .352.064.48.192.138.117.208.304.208.56v7.024h1.088c.234 0 .41.053.528.16.117.107.176.261.176.464 0 .213-.059.373-.176.48-.118.107-.294.16-.528.16h-1.088v1.712c0 .245-.064.432-.192.56-.128.128-.31.192-.544.192Zm-.736-3.728v-5.92h.4l-4.32 6.32v-.4h3.92Zm14.389 3.76c-1.205 0-2.229-.23-3.072-.688a4.658 4.658 0 0 1-1.904-2c-.427-.864-.64-1.893-.64-3.088 0-.896.123-1.696.368-2.4a5.006 5.006 0 0 1 1.072-1.824 4.724 4.724 0 0 1 1.728-1.168c.683-.267 1.451-.4 2.304-.4.661 0 1.301.09 1.92.272.619.17 1.184.453 1.696.848a.604.604 0 0 1 .24.336.671.671 0 0 1 .016.384.712.712 0 0 1-.192.336.542.542 0 0 1-.336.176c-.128.01-.267-.032-.416-.128a4.381 4.381 0 0 0-1.376-.688 5.462 5.462 0 0 0-1.552-.208c-.843 0-1.557.176-2.144.528-.587.341-1.029.848-1.328 1.52-.288.661-.432 1.467-.432 2.416 0 1.461.341 2.57 1.024 3.328.693.757 1.717 1.136 3.072 1.136.501 0 .987-.048 1.456-.144.48-.096.939-.23 1.376-.4l-.32.8v-3.856h-2.176a.662.662 0 0 1-.464-.16.583.583 0 0 1-.16-.432c0-.181.053-.32.16-.416a.71.71 0 0 1 .464-.144h2.832c.192 0 .341.053.448.16.117.107.176.261.176.464v4.112a.99.99 0 0 1-.096.448.561.561 0 0 1-.32.256c-.448.181-.981.33-1.6.448a9.783 9.783 0 0 1-1.824.176Zm8.744 0a3.28 3.28 0 0 1-1.456-.32 2.59 2.59 0 0 1-1.008-.864 2.196 2.196 0 0 1-.352-1.216c0-.576.144-1.03.432-1.36.288-.33.774-.565 1.456-.704.683-.15 1.6-.224 2.752-.224h.752v.928h-.72c-.821 0-1.472.037-1.952.112-.469.075-.8.208-.992.4-.192.181-.288.437-.288.768 0 .416.144.757.432 1.024.299.267.704.4 1.216.4.406 0 .763-.096 1.072-.288.31-.203.555-.47.736-.8.182-.341.272-.73.272-1.168v-1.84c0-.63-.128-1.083-.384-1.36-.256-.288-.688-.432-1.296-.432-.352 0-.714.048-1.088.144a5.947 5.947 0 0 0-1.168.448c-.16.075-.298.101-.416.08a.536.536 0 0 1-.288-.192.79.79 0 0 1-.112-.336c0-.128.027-.25.08-.368a.561.561 0 0 1 .32-.256c.47-.235.934-.4 1.392-.496.47-.107.907-.16 1.312-.16.694 0 1.264.112 1.712.336.448.213.784.55 1.008 1.008.224.448.336 1.024.336 1.728v4.224c0 .245-.058.432-.176.56-.117.128-.288.192-.512.192a.692.692 0 0 1-.512-.192c-.117-.128-.176-.315-.176-.56v-1.136h.144a2.387 2.387 0 0 1-.48 1.024 2.39 2.39 0 0 1-.88.672c-.341.15-.73.224-1.168.224Zm9.028 0c-.683 0-1.286-.16-1.808-.48-.512-.33-.912-.8-1.2-1.408-.288-.619-.432-1.339-.432-2.16 0-.832.138-1.547.416-2.144.288-.608.688-1.072 1.2-1.392.522-.33 1.13-.496 1.824-.496.693 0 1.29.176 1.792.528.501.341.837.8 1.008 1.376h-.176v-4.624c0-.245.058-.427.176-.544.128-.128.309-.192.544-.192.234 0 .416.064.544.192.128.117.192.299.192.544V42.36c0 .245-.064.432-.192.56-.128.128-.31.192-.544.192-.224 0-.4-.064-.528-.192s-.192-.315-.192-.56v-1.456l.176.288a2.445 2.445 0 0 1-1.008 1.424c-.502.352-1.099.528-1.792.528Zm.336-1.152c.469 0 .874-.112 1.216-.336.352-.224.618-.55.8-.976.192-.427.288-.955.288-1.584 0-.939-.208-1.653-.624-2.144-.416-.49-.976-.736-1.68-.736-.459 0-.864.112-1.216.336-.342.213-.608.533-.8.96-.192.427-.288.955-.288 1.584 0 .939.208 1.659.624 2.16.426.49.986.736 1.68.736Zm9.582 4.032a7.31 7.31 0 0 1-1.68-.192 5.042 5.042 0 0 1-1.456-.592.717.717 0 0 1-.288-.304.608.608 0 0 1-.032-.336.915.915 0 0 1 .16-.32.69.69 0 0 1 .288-.176.48.48 0 0 1 .352.08c.47.267.918.448 1.344.544.427.096.832.144 1.216.144.758 0 1.323-.197 1.696-.592.384-.384.576-.95.576-1.696v-1.728h.144a2.354 2.354 0 0 1-1.008 1.424c-.512.352-1.109.528-1.792.528-.704 0-1.317-.16-1.84-.48a3.346 3.346 0 0 1-1.216-1.36c-.288-.587-.432-1.264-.432-2.032 0-.587.08-1.115.24-1.584.171-.48.406-.885.704-1.216a3.13 3.13 0 0 1 1.104-.784 3.474 3.474 0 0 1 1.44-.288c.694 0 1.296.176 1.808.528.512.352.843.827.992 1.424l-.176.224v-1.408c0-.245.064-.427.192-.544.128-.128.31-.192.544-.192.224 0 .4.064.528.192.128.117.192.299.192.544v6.56c0 1.205-.309 2.112-.928 2.72-.608.608-1.498.912-2.672.912Zm-.16-4.368c.48 0 .891-.107 1.232-.32.352-.224.619-.539.8-.944.192-.416.288-.901.288-1.456 0-.843-.208-1.504-.624-1.984-.416-.49-.981-.736-1.696-.736-.48 0-.896.112-1.248.336a2.143 2.143 0 0 0-.8.928c-.192.405-.288.89-.288 1.456 0 .832.208 1.493.624 1.984.427.49.998.736 1.712.736Zm9.694 1.488c-.843 0-1.568-.16-2.176-.48a3.488 3.488 0 0 1-1.392-1.392c-.331-.608-.496-1.323-.496-2.144 0-.81.16-1.52.48-2.128a3.67 3.67 0 0 1 1.344-1.424c.576-.341 1.232-.512 1.968-.512.522 0 .992.09 1.408.272.426.17.789.421 1.088.752.298.33.522.736.672 1.216.16.47.24 1.003.24 1.6 0 .17-.054.304-.16.4-.096.085-.24.128-.432.128h-5.472v-.928h5.104l-.272.224c0-.555-.086-1.024-.256-1.408-.16-.395-.4-.693-.72-.896-.31-.203-.699-.304-1.168-.304-.512 0-.95.123-1.312.368a2.23 2.23 0 0 0-.832 1.008c-.192.427-.288.923-.288 1.488v.096c0 .96.229 1.685.688 2.176.458.49 1.12.736 1.984.736.341 0 .688-.043 1.04-.128.362-.085.709-.24 1.04-.464.16-.096.304-.139.432-.128.138 0 .25.043.336.128.085.075.138.17.16.288a.608.608 0 0 1-.048.352.759.759 0 0 1-.304.336 4.191 4.191 0 0 1-1.264.576c-.48.128-.944.192-1.392.192Zm8.163 0c-.629 0-1.157-.112-1.584-.336a2.196 2.196 0 0 1-.944-.976c-.203-.427-.304-.95-.304-1.568v-3.936h-1.024c-.192 0-.341-.048-.448-.144a.561.561 0 0 1-.16-.416c0-.181.053-.32.16-.416.107-.096.256-.144.448-.144h1.024v-1.744c0-.245.064-.427.192-.544.128-.128.309-.192.544-.192.235 0 .411.064.528.192.128.117.192.299.192.544v1.744h1.936c.203 0 .357.048.464.144.107.096.16.235.16.416 0 .17-.053.31-.16.416-.107.096-.261.144-.464.144h-1.936v3.808c0 .587.123 1.03.368 1.328.245.299.651.448 1.216.448.203 0 .373-.016.512-.048a1.27 1.27 0 0 1 .368-.064.261.261 0 0 1 .24.096c.075.075.112.213.112.416 0 .15-.027.288-.08.416-.043.117-.133.197-.272.24-.128.043-.299.08-.512.112a2.958 2.958 0 0 1-.576.064Zm3.494-.144c-.256 0-.453-.07-.592-.208-.138-.139-.208-.336-.208-.592v-9.68c0-.256.07-.453.208-.592.139-.139.336-.208.592-.208h3.792c.779 0 1.44.117 1.984.352.555.235.976.57 1.264 1.008.288.437.432.965.432 1.584 0 .693-.202 1.275-.608 1.744-.405.47-.96.784-1.664.944v-.24c.79.096 1.408.39 1.856.88.459.48.688 1.11.688 1.888 0 1.003-.33 1.776-.992 2.32-.65.533-1.573.8-2.768.8h-3.984Zm.64-1.168h3.184c.832 0 1.451-.16 1.856-.48.406-.33.608-.832.608-1.504s-.202-1.168-.608-1.488c-.405-.32-1.024-.48-1.856-.48h-3.184v3.952Zm0-5.136h2.928c.811 0 1.419-.16 1.824-.48.416-.33.624-.805.624-1.424 0-.619-.208-1.088-.624-1.408-.405-.33-1.013-.496-1.824-.496h-2.928v3.808Zm11.708 6.448a3.274 3.274 0 0 1-1.456-.32 2.576 2.576 0 0 1-1.008-.864 2.188 2.188 0 0 1-.352-1.216c0-.576.144-1.03.432-1.36.288-.33.773-.565 1.456-.704.682-.15 1.6-.224 2.752-.224h.752v.928h-.72c-.822 0-1.472.037-1.952.112-.47.075-.8.208-.992.4-.192.181-.288.437-.288.768 0 .416.144.757.432 1.024.298.267.704.4 1.216.4.405 0 .762-.096 1.072-.288a2.22 2.22 0 0 0 .736-.8c.181-.341.272-.73.272-1.168v-1.84c0-.63-.128-1.083-.384-1.36-.256-.288-.688-.432-1.296-.432a4.36 4.36 0 0 0-1.088.144 5.9 5.9 0 0 0-1.168.448c-.16.075-.299.101-.416.08a.529.529 0 0 1-.288-.192.776.776 0 0 1-.112-.336.87.87 0 0 1 .08-.368.558.558 0 0 1 .32-.256c.469-.235.933-.4 1.392-.496.469-.107.906-.16 1.312-.16.693 0 1.264.112 1.712.336.448.213.784.55 1.008 1.008.224.448.336 1.024.336 1.728v4.224c0 .245-.059.432-.176.56-.118.128-.288.192-.512.192a.69.69 0 0 1-.512-.192c-.118-.128-.176-.315-.176-.56v-1.136h.144a2.41 2.41 0 0 1-.48 1.024 2.398 2.398 0 0 1-.88.672c-.342.15-.731.224-1.168.224Zm6.291-.144a.609.609 0 0 1-.384-.112.632.632 0 0 1-.208-.288.779.779 0 0 1 0-.384c.043-.139.123-.277.24-.416l4.432-5.84v.368h-4.176a.623.623 0 0 1-.432-.144.598.598 0 0 1-.144-.416c0-.181.048-.32.144-.416a.623.623 0 0 1 .432-.144h4.88c.181 0 .325.037.432.112.117.075.192.17.224.288a.663.663 0 0 1 .016.384.906.906 0 0 1-.224.384l-4.496 5.904v-.4h4.384c.384 0 .576.187.576.56 0 .17-.053.31-.16.416-.096.096-.235.144-.416.144h-5.12Zm9.615.144a3.277 3.277 0 0 1-1.456-.32 2.576 2.576 0 0 1-1.008-.864 2.188 2.188 0 0 1-.352-1.216c0-.576.144-1.03.432-1.36.288-.33.773-.565 1.456-.704.683-.15 1.6-.224 2.752-.224h.752v.928h-.72c-.821 0-1.472.037-1.952.112-.469.075-.8.208-.992.4-.192.181-.288.437-.288.768 0 .416.144.757.432 1.024.299.267.704.4 1.216.4a1.99 1.99 0 0 0 1.072-.288c.309-.203.555-.47.736-.8.181-.341.272-.73.272-1.168v-1.84c0-.63-.128-1.083-.384-1.36-.256-.288-.688-.432-1.296-.432a4.36 4.36 0 0 0-1.088.144 5.924 5.924 0 0 0-1.168.448c-.16.075-.299.101-.416.08a.536.536 0 0 1-.288-.192.79.79 0 0 1-.112-.336c0-.128.027-.25.08-.368a.561.561 0 0 1 .32-.256c.469-.235.933-.4 1.392-.496a5.94 5.94 0 0 1 1.312-.16c.693 0 1.264.112 1.712.336.448.213.784.55 1.008 1.008.224.448.336 1.024.336 1.728v4.224c0 .245-.059.432-.176.56-.117.128-.288.192-.512.192a.692.692 0 0 1-.512-.192c-.117-.128-.176-.315-.176-.56v-1.136h.144a2.387 2.387 0 0 1-.48 1.024 2.398 2.398 0 0 1-.88.672c-.341.15-.731.224-1.168.224Zm6.803-.032c-.245 0-.432-.064-.56-.192-.128-.128-.192-.315-.192-.56v-6.528c0-.245.064-.427.192-.544.128-.128.304-.192.528-.192.224 0 .395.064.512.192.128.117.192.299.192.544v1.232h-.16c.171-.64.491-1.125.96-1.456.47-.33 1.062-.517 1.776-.56.171-.01.31.032.416.128.107.085.166.235.176.448a.686.686 0 0 1-.144.496c-.106.117-.272.187-.496.208l-.288.016c-.704.075-1.248.304-1.632.688-.373.384-.56.912-.56 1.584v3.744c0 .245-.064.432-.192.56-.117.128-.293.192-.528.192Zm5.452-.048a.934.934 0 0 1-.688-.272.934.934 0 0 1-.272-.688c0-.277.091-.501.272-.672a.966.966 0 0 1 .688-.256c.299 0 .528.085.688.256.171.17.256.395.256.672a.963.963 0 0 1-.256.688c-.16.181-.389.272-.688.272Zm11.091.08a8.12 8.12 0 0 1-1.456-.128 6.55 6.55 0 0 1-1.328-.352 5.053 5.053 0 0 1-1.12-.592.867.867 0 0 1-.304-.352.742.742 0 0 1-.048-.4.778.778 0 0 1 .176-.352.607.607 0 0 1 .336-.176c.128-.021.266.021.416.128.49.33 1.002.57 1.536.72.544.15 1.141.224 1.792.224.938 0 1.626-.17 2.064-.512.448-.341.672-.79.672-1.344 0-.459-.16-.816-.48-1.072-.32-.267-.859-.475-1.616-.624l-1.696-.352c-1.003-.213-1.755-.565-2.256-1.056-.491-.49-.736-1.147-.736-1.968 0-.501.101-.955.304-1.36.202-.416.49-.773.864-1.072.373-.299.81-.528 1.312-.688a5.665 5.665 0 0 1 1.696-.24c.661 0 1.28.09 1.856.272a5.167 5.167 0 0 1 1.584.8.69.69 0 0 1 .256.352.68.68 0 0 1 .016.384.536.536 0 0 1-.176.32.516.516 0 0 1-.336.144c-.128.01-.272-.037-.432-.144a4.395 4.395 0 0 0-1.312-.64 4.96 4.96 0 0 0-1.472-.208c-.544 0-1.019.085-1.424.256-.395.17-.704.41-.928.72-.214.299-.32.65-.32 1.056 0 .49.149.875.448 1.152.298.277.8.49 1.504.64l1.68.336c1.066.224 1.856.57 2.368 1.04.522.459.784 1.077.784 1.856 0 .49-.102.933-.304 1.328a2.95 2.95 0 0 1-.832 1.024 4.19 4.19 0 0 1-1.328.656 6.41 6.41 0 0 1-1.76.224Zm6.722-.032c-.224 0-.4-.064-.528-.192s-.192-.315-.192-.56V32.344c0-.245.064-.427.192-.544.128-.128.304-.192.528-.192.235 0 .416.064.544.192.128.117.192.299.192.544v4.56h-.208c.224-.608.587-1.067 1.088-1.376.512-.31 1.093-.464 1.744-.464.629 0 1.147.117 1.552.352.405.224.709.565.912 1.024.203.459.304 1.035.304 1.728v4.192c0 .245-.064.432-.192.56-.117.128-.293.192-.528.192-.235 0-.416-.064-.544-.192-.128-.128-.192-.315-.192-.56v-4.112c0-.693-.133-1.2-.4-1.52-.267-.32-.693-.48-1.28-.48-.683 0-1.232.213-1.648.64-.405.416-.608.981-.608 1.696v3.776c0 .501-.245.752-.736.752Zm11.748.032c-.768 0-1.434-.165-2-.496a3.357 3.357 0 0 1-1.312-1.408c-.309-.608-.464-1.323-.464-2.144 0-.619.086-1.173.256-1.664.182-.501.438-.928.768-1.28a3.242 3.242 0 0 1 1.184-.8c.47-.192.992-.288 1.568-.288.768 0 1.435.165 2 .496.566.33 1.003.8 1.312 1.408.31.597.464 1.307.464 2.128 0 .619-.09 1.179-.272 1.68-.17.501-.421.928-.752 1.28-.33.352-.73.624-1.2.816a4.19 4.19 0 0 1-1.552.272Zm0-1.152c.47 0 .875-.112 1.216-.336.352-.224.619-.55.8-.976.192-.427.288-.955.288-1.584 0-.939-.208-1.653-.624-2.144-.416-.49-.976-.736-1.68-.736-.458 0-.864.112-1.216.336-.341.213-.608.533-.8.96-.192.427-.288.955-.288 1.584 0 .939.208 1.659.624 2.16.427.49.987.736 1.68.736Zm6.362 4c-.224 0-.4-.064-.528-.192s-.192-.31-.192-.544v-9.424c0-.245.064-.427.192-.544.128-.128.304-.192.528-.192.234 0 .41.064.528.192.128.117.192.299.192.544v1.456L776.12 37a2.535 2.535 0 0 1 1.008-1.408c.501-.352 1.104-.528 1.808-.528.693 0 1.296.165 1.808.496.512.32.912.784 1.2 1.392.288.597.432 1.312.432 2.144 0 .821-.144 1.541-.432 2.16-.278.608-.678 1.077-1.2 1.408-.512.32-1.115.48-1.808.48-.694 0-1.291-.176-1.792-.528a2.535 2.535 0 0 1-1.008-1.392h.176v4.032c0 .235-.064.416-.192.544-.128.128-.31.192-.544.192Zm3.024-4a2.14 2.14 0 0 0 1.2-.336c.352-.224.624-.55.816-.976.192-.427.288-.955.288-1.584 0-.939-.208-1.653-.624-2.144-.416-.49-.976-.736-1.68-.736-.47 0-.88.112-1.232.336-.342.213-.608.533-.8.96-.182.427-.272.955-.272 1.584 0 .939.208 1.659.624 2.16.416.49.976.736 1.68.736Zm13.706 1.12c-.213 0-.384-.053-.512-.16-.128-.107-.235-.277-.32-.512l-3.488-9.952c-.096-.245-.085-.453.032-.624.128-.17.336-.256.624-.256.203 0 .363.048.48.144.117.096.213.256.288.48l3.216 9.44h-.576l3.296-9.408c.085-.224.187-.39.304-.496a.662.662 0 0 1 .464-.16c.203 0 .357.053.464.16.117.107.213.277.288.512l3.232 9.392h-.512l3.248-9.44c.075-.213.171-.368.288-.464.117-.107.283-.16.496-.16.245 0 .427.085.544.256.117.17.133.379.048.624l-3.52 9.968c-.075.224-.176.39-.304.496-.128.107-.299.16-.512.16-.224 0-.4-.053-.528-.16-.128-.107-.235-.277-.32-.512l-3.12-8.96h.352l-3.136 8.976c-.085.224-.192.39-.32.496-.117.107-.283.16-.496.16Zm14.957-.032c-.224 0-.4-.07-.528-.208-.128-.139-.192-.33-.192-.576v-6.384c0-.256.064-.448.192-.576.128-.139.304-.208.528-.208.235 0 .416.07.544.208.128.128.192.32.192.576v6.384c0 .245-.064.437-.192.576-.117.139-.299.208-.544.208Zm0-9.68c-.288 0-.517-.075-.688-.224a.844.844 0 0 1-.24-.624c0-.277.08-.485.24-.624.171-.15.4-.224.688-.224.309 0 .539.075.688.224.16.139.24.347.24.624 0 .256-.08.464-.24.624-.149.15-.379.224-.688.224Zm6.309 9.744c-.629 0-1.157-.112-1.584-.336a2.196 2.196 0 0 1-.944-.976c-.203-.427-.304-.95-.304-1.568v-3.936h-1.024c-.192 0-.341-.048-.448-.144a.561.561 0 0 1-.16-.416c0-.181.053-.32.16-.416.107-.096.256-.144.448-.144h1.024v-1.744c0-.245.064-.427.192-.544.128-.128.309-.192.544-.192.235 0 .411.064.528.192.128.117.192.299.192.544v1.744h1.936c.203 0 .357.048.464.144.107.096.16.235.16.416 0 .17-.053.31-.16.416-.107.096-.261.144-.464.144h-1.936v3.808c0 .587.123 1.03.368 1.328.245.299.651.448 1.216.448.203 0 .373-.016.512-.048a1.27 1.27 0 0 1 .368-.064.261.261 0 0 1 .24.096c.075.075.112.213.112.416 0 .15-.027.288-.08.416-.043.117-.133.197-.272.24-.128.043-.299.08-.512.112a2.958 2.958 0 0 1-.576.064Zm3.347-.032c-.224 0-.4-.064-.528-.192s-.192-.315-.192-.56V32.344c0-.245.064-.427.192-.544.128-.128.304-.192.528-.192.235 0 .416.064.544.192.128.117.192.299.192.544v4.56h-.208c.224-.608.587-1.067 1.088-1.376.512-.31 1.094-.464 1.744-.464.63 0 1.147.117 1.552.352.406.224.71.565.912 1.024.203.459.304 1.035.304 1.728v4.192c0 .245-.064.432-.192.56-.117.128-.293.192-.528.192-.234 0-.416-.064-.544-.192-.128-.128-.192-.315-.192-.56v-4.112c0-.693-.133-1.2-.4-1.52-.266-.32-.693-.48-1.28-.48-.682 0-1.232.213-1.648.64-.405.416-.608.981-.608 1.696v3.776c0 .501-.245.752-.736.752Zm17.296.032c-.746 0-1.408-.096-1.984-.288a3.79 3.79 0 0 1-1.424-.88 3.923 3.923 0 0 1-.88-1.456c-.192-.587-.288-1.264-.288-2.032V32.36c0-.256.064-.443.192-.56.128-.128.31-.192.544-.192.246 0 .432.064.56.192.128.117.192.304.192.56v6.08c0 1.141.262 1.995.784 2.56.523.555 1.291.832 2.304.832 1.014 0 1.782-.277 2.304-.832.523-.565.784-1.419.784-2.56v-6.08c0-.256.064-.443.192-.56.128-.128.31-.192.544-.192.235 0 .416.064.544.192.128.117.192.304.192.56v6.128c0 1.013-.176 1.867-.528 2.56a3.415 3.415 0 0 1-1.536 1.568c-.672.352-1.504.528-2.496.528Zm9.704 0c-.48 0-.966-.053-1.456-.16a4.39 4.39 0 0 1-1.36-.592.683.683 0 0 1-.256-.272.748.748 0 0 1-.048-.336.615.615 0 0 1 .144-.304.403.403 0 0 1 .272-.144.532.532 0 0 1 .368.08c.416.235.816.4 1.2.496.394.096.784.144 1.168.144.586 0 1.029-.107 1.328-.32.298-.213.448-.496.448-.848 0-.299-.102-.528-.304-.688-.192-.17-.496-.299-.912-.384l-1.488-.304c-.662-.15-1.163-.395-1.504-.736-.331-.352-.496-.8-.496-1.344 0-.48.128-.896.384-1.248.266-.363.634-.64 1.104-.832.469-.192 1.008-.288 1.616-.288.469 0 .912.064 1.328.192.426.117.81.299 1.152.544.128.075.208.17.24.288a.52.52 0 0 1 .016.336.53.53 0 0 1-.144.272.531.531 0 0 1-.288.144.68.68 0 0 1-.384-.096 3.027 3.027 0 0 0-.96-.448 3.326 3.326 0 0 0-.96-.144c-.576 0-1.014.112-1.312.336a1.062 1.062 0 0 0-.432.88c0 .277.085.507.256.688.181.181.464.315.848.4l1.488.304c.693.15 1.216.39 1.568.72.352.32.528.757.528 1.312 0 .725-.288 1.301-.864 1.728-.566.416-1.328.624-2.288.624Z"/></svg>