<svg xmlns="http://www.w3.org/2000/svg" width="43" height="44" fill="none"><g filter="url(#a)"><circle cx="21.5" cy="19.814" r="17.5" fill="#fff"/></g><path fill="#000" d="M29 13.226v11.306a3.85 3.85 0 0 1-.784 2.329 3.788 3.788 0 0 1-2.025 1.366 3.755 3.755 0 0 1-2.431-.161 3.801 3.801 0 0 1-1.832-1.622 3.857 3.857 0 0 1 .603-4.618 3.76 3.76 0 0 1 4.574-.608v-4.165l-9.474 1.594v6.842a.969.969 0 0 1-.014.166 3.374 3.374 0 0 1-.497 2.098 3.322 3.322 0 0 1-1.662 1.356 3.286 3.286 0 0 1-2.136.051 3.318 3.318 0 0 1-1.723-1.275 3.37 3.37 0 0 1 .184-4.08 3.31 3.31 0 0 1 1.831-1.11 3.288 3.288 0 0 1 2.123.246v-8.12c0-.453.159-.891.449-1.237a1.89 1.89 0 0 1 1.134-.65l9.474-1.594a1.878 1.878 0 0 1 1.536.427 1.911 1.911 0 0 1 .67 1.46ZM14.316 24.532c-.377 0-.739.151-1.005.42a1.442 1.442 0 0 0 0 2.03 1.415 1.415 0 0 0 2.01 0 1.442 1.442 0 0 0 0-2.03 1.414 1.414 0 0 0-1.005-.42ZM25.21 22.62c-.502 0-.984.202-1.34.56a1.922 1.922 0 0 0 0 2.706 1.886 1.886 0 0 0 2.68 0 1.923 1.923 0 0 0 0-2.706 1.885 1.885 0 0 0-1.34-.56Zm1.895-9.393-9.474 1.595v1.887l9.474-1.595v-1.887Z"/><defs><filter id="a" width="43" height="43" x="0" y=".314" color-interpolation-filters="sRGB" filterUnits="userSpaceOnUse"><feFlood flood-opacity="0" result="BackgroundImageFix"/><feColorMatrix in="SourceAlpha" result="hardAlpha" values="0 0 0 0 0 0 0 0 0 0 0 0 0 0 0 0 0 0 127 0"/><feOffset dy="2"/><feGaussianBlur stdDeviation="2"/><feComposite in2="hardAlpha" operator="out"/><feColorMatrix values="0 0 0 0 0 0 0 0 0 0 0 0 0 0 0 0 0 0 0.25 0"/><feBlend in2="BackgroundImageFix" result="effect1_dropShadow_1_216"/><feBlend in="SourceGraphic" in2="effect1_dropShadow_1_216" result="shape"/></filter></defs></svg>