<svg xmlns="http://www.w3.org/2000/svg" width="39" height="42" fill="none"><g filter="url(#a)"><circle cx="17.5" cy="17.814" r="17.5" fill="#fff"/></g><path stroke="#000" stroke-linecap="round" stroke-linejoin="round" stroke-width="2" d="M22.393 9.314c-3.278 0-4.893 3.207-4.893 3.207s-1.615-3.207-4.893-3.207c-2.663 0-4.772 2.212-4.8 4.851-.055 5.48 4.379 9.376 9.239 12.65a.812.812 0 0 0 .908 0c4.86-3.274 9.293-7.17 9.238-12.65-.027-2.64-2.136-4.851-4.8-4.851Z"/><path stroke="#000" stroke-linecap="round" stroke-linejoin="round" stroke-width="2" d="M7 18.134h5.654l2.423-4.811L17.5 21.34l2.423-4.811 1.616 3.207H28"/><defs><filter id="a" width="43" height="43" x="-4" y="-1.686" color-interpolation-filters="sRGB" filterUnits="userSpaceOnUse"><feFlood flood-opacity="0" result="BackgroundImageFix"/><feColorMatrix in="SourceAlpha" result="hardAlpha" values="0 0 0 0 0 0 0 0 0 0 0 0 0 0 0 0 0 0 127 0"/><feOffset dy="2"/><feGaussianBlur stdDeviation="2"/><feComposite in2="hardAlpha" operator="out"/><feColorMatrix values="0 0 0 0 0 0 0 0 0 0 0 0 0 0 0 0 0 0 0.25 0"/><feBlend in2="BackgroundImageFix" result="effect1_dropShadow_1_222"/><feBlend in="SourceGraphic" in2="effect1_dropShadow_1_222" result="shape"/></filter></defs></svg>