<svg xmlns="http://www.w3.org/2000/svg" width="43" height="44" fill="none"><g filter="url(#a)"><circle cx="21.5" cy="19.814" r="17.5" fill="#fff"/></g><path fill="#000" d="M32 21.814c0 1.76-1.3 3.22-3 3.46v3.04a2 2 0 0 1-2 2h-3.8v-.3a2.7 2.7 0 0 0-5.4 0v.3H14a2 2 0 0 1-2-2v-3.8h.3c1.49 0 2.7-1.2 2.7-2.7 0-1.5-1.21-2.7-2.7-2.7H12v-3.8a2 2 0 0 1 2-2h3.04c.24-1.7 1.7-3 3.46-3s3.22 1.3 3.46 3H27a2 2 0 0 1 2 2v3.04c1.7.24 3 1.7 3 3.46Zm-5 1.5h1.5a1.5 1.5 0 0 0 0-3H27v-5h-5v-1.5a1.5 1.5 0 1 0-3 0v1.5h-5v2.12c1.76.68 3 2.38 3 4.38s-1.25 3.7-3 4.38v2.12h2.12a4.7 4.7 0 0 1 4.38-3c2 0 3.7 1.25 4.38 3H27v-5Z"/><defs><filter id="a" width="43" height="43" x="0" y=".314" color-interpolation-filters="sRGB" filterUnits="userSpaceOnUse"><feFlood flood-opacity="0" result="BackgroundImageFix"/><feColorMatrix in="SourceAlpha" result="hardAlpha" values="0 0 0 0 0 0 0 0 0 0 0 0 0 0 0 0 0 0 127 0"/><feOffset dy="2"/><feGaussianBlur stdDeviation="2"/><feComposite in2="hardAlpha" operator="out"/><feColorMatrix values="0 0 0 0 0 0 0 0 0 0 0 0 0 0 0 0 0 0 0.25 0"/><feBlend in2="BackgroundImageFix" result="effect1_dropShadow_1_210"/><feBlend in="SourceGraphic" in2="effect1_dropShadow_1_210" result="shape"/></filter></defs></svg>