<svg xmlns="http://www.w3.org/2000/svg" width="43" height="44" fill="none"><g filter="url(#a)"><circle cx="21.5" cy="19.814" r="17.5" fill="#fff"/></g><path fill="#000" d="M31.032 19.346h-1.675a7.437 7.437 0 0 0-6.39-6.389v-1.675a.968.968 0 1 0-1.935 0v1.675a7.436 7.436 0 0 0-6.389 6.39h-1.675a.968.968 0 0 0 0 1.935h1.675a7.437 7.437 0 0 0 6.39 6.388v1.676a.968.968 0 1 0 1.935 0V27.67a7.437 7.437 0 0 0 6.389-6.388h1.675a.968.968 0 0 0 0-1.936ZM22 25.798a5.484 5.484 0 1 1 0-10.968 5.484 5.484 0 0 1 0 10.968Z"/><defs><filter id="a" width="43" height="43" x="0" y=".314" color-interpolation-filters="sRGB" filterUnits="userSpaceOnUse"><feFlood flood-opacity="0" result="BackgroundImageFix"/><feColorMatrix in="SourceAlpha" result="hardAlpha" values="0 0 0 0 0 0 0 0 0 0 0 0 0 0 0 0 0 0 127 0"/><feOffset dy="2"/><feGaussianBlur stdDeviation="2"/><feComposite in2="hardAlpha" operator="out"/><feColorMatrix values="0 0 0 0 0 0 0 0 0 0 0 0 0 0 0 0 0 0 0.25 0"/><feBlend in2="BackgroundImageFix" result="effect1_dropShadow_1_204"/><feBlend in="SourceGraphic" in2="effect1_dropShadow_1_204" result="shape"/></filter></defs></svg>