<svg xmlns="http://www.w3.org/2000/svg" width="31" height="31" fill="none"><path fill="#fff" d="M5.693 3.499C11.78-1.491 20.777-1.144 26.46 4.54c6.052 6.053 6.052 15.868 0 21.92-6.052 6.053-15.866 6.053-21.918 0A15.49 15.49 0 0 1 .392 12.04l.12-.486 2.997.79A12.4 12.4 0 0 0 18.808 27.45 12.4 12.4 0 1 0 8.24 5.447l-.341.257 1.576 1.577-7.123 1.643L3.995 1.8l1.698 1.699ZM17.052 6.2v3.1h3.874v3.1h-8.524a.775.775 0 0 0-.14 1.538l.14.012h6.2a3.875 3.875 0 0 1 0 7.75h-1.55v3.1h-3.1v-3.1h-3.875v-3.1h8.524a.775.775 0 0 0 .14-1.537l-.14-.013h-6.2a3.874 3.874 0 1 1 0-7.75h1.55V6.2h3.1Z"/></svg>