<svg xmlns="http://www.w3.org/2000/svg" width="31" height="28" fill="none"><path fill="#fff" d="M13.95 28v-3.111h12.4V13.844c0-3.033-1.053-5.606-3.157-7.718-2.105-2.113-4.67-3.17-7.693-3.17-3.024-.001-5.587 1.055-7.691 3.17-2.104 2.114-3.157 4.687-3.159 7.718v9.49H3.1a2.978 2.978 0 0 1-2.189-.914A3.007 3.007 0 0 1 0 20.222v-3.11c0-.545.136-1.057.408-1.536.271-.48.652-.862 1.142-1.148l.116-2.061a13.488 13.488 0 0 1 1.532-4.9 14.754 14.754 0 0 1 3.06-3.928A13.584 13.584 0 0 1 10.482.933 13.635 13.635 0 0 1 15.5 0c1.758 0 3.424.311 4.999.933a14.117 14.117 0 0 1 4.224 2.587 13.934 13.934 0 0 1 3.06 3.908 14.343 14.343 0 0 1 1.55 4.9l.117 2.022c.49.233.872.583 1.144 1.05.272.467.407.96.406 1.478v3.578a2.9 2.9 0 0 1-.406 1.477 2.56 2.56 0 0 1-1.144 1.05v1.906c0 .855-.303 1.588-.91 2.198a2.972 2.972 0 0 1-2.19.913h-12.4Zm-3.1-10.889c-.44 0-.807-.15-1.104-.448a1.515 1.515 0 0 1-.446-1.107 1.5 1.5 0 0 1 .446-1.108A1.5 1.5 0 0 1 10.85 14c.437 0 .806.15 1.105.448.3.299.448.668.445 1.108-.003.44-.152.809-.446 1.109-.295.3-.663.448-1.104.446Zm9.3 0c-.44 0-.807-.15-1.104-.448a1.515 1.515 0 0 1-.446-1.107 1.5 1.5 0 0 1 .446-1.108A1.5 1.5 0 0 1 20.15 14c.437 0 .806.15 1.105.448.3.299.448.668.445 1.108-.003.44-.152.809-.446 1.109-.295.3-.663.448-1.104.446ZM6.239 14.7c-.181-2.748.646-5.107 2.48-7.078 1.834-1.97 4.12-2.955 6.859-2.955 2.299 0 4.32.732 6.065 2.196 1.744 1.464 2.796 3.338 3.157 5.622a12.213 12.213 0 0 1-6.49-1.907c-1.976-1.245-3.494-2.93-4.554-5.056a12.437 12.437 0 0 1-2.615 5.543A12.368 12.368 0 0 1 6.24 14.7Z"/></svg>